<?xml version="1.0" standalone="no"?>
<!DOCTYPE svg PUBLIC "-//W3C//DTD SVG 20010904//EN"
 "http://www.w3.org/TR/2001/REC-SVG-20010904/DTD/svg10.dtd">
<svg version="1.0" xmlns="http://www.w3.org/2000/svg"
 width="260.000000pt" height="260.000000pt" viewBox="0 0 260.000000 260.000000"
 preserveAspectRatio="xMidYMid meet">
<metadata>
Created by potrace 1.14, written by Peter Selinger 2001-2017
</metadata>
<g transform="translate(0.000000,260.000000) scale(0.100000,-0.100000)"
fill="#000000" stroke="none">
<path d="M1198 1516 c-67 -28 -108 -93 -108 -171 0 -116 74 -192 188 -193 56
0 62 4 68 47 4 25 3 27 -29 23 -42 -5 -74 21 -80 65 -6 41 27 78 74 81 17 1
35 4 38 6 3 2 4 37 1 78 l-5 73 -60 1 c-33 1 -72 -4 -87 -10z"/>
<path d="M1522 1509 c-39 -23 -52 -48 -52 -98 0 -35 7 -48 50 -93 57 -60 64
-93 18 -93 -22 1 -28 -4 -28 -21 0 -43 10 -54 52 -54 100 0 140 72 90 162 -17
30 -18 39 -8 54 8 10 20 15 30 11 14 -6 16 3 16 67 0 50 -4 75 -12 79 -33 12
-128 4 -156 -14z"/>
<path d="M1721 1521 c-8 -6 -10 -41 -5 -132 4 -68 7 -146 8 -174 l2 -50 66 -3
c49 -2 66 0 65 10 -1 41 4 58 20 58 9 0 36 9 60 21 51 25 73 66 73 138 0 89
-73 139 -201 139 -42 0 -81 -3 -88 -7z m187 -148 c13 -25 6 -55 -14 -70 -30
-22 -35 -15 -33 37 2 40 6 50 20 50 10 0 22 -8 27 -17z"/>
<path d="M310 1438 c16 -46 42 -126 58 -178 l29 -95 41 -3 42 -3 22 75 c12 42
25 76 28 76 4 0 14 -34 24 -75 l18 -75 42 0 41 0 55 168 c30 92 56 173 58 180
2 8 -9 12 -36 12 l-40 0 -18 -75 c-16 -69 -25 -84 -30 -52 -21 137 -14 127
-96 127 -68 0 -70 -1 -64 -22 14 -52 17 -94 8 -117 -8 -22 -11 -14 -28 55
l-20 79 -81 3 -81 3 28 -83z"/>
<path d="M789 1515 c-1 -3 -1 -14 -1 -25 0 -111 -1 -110 37 -110 31 0 35 -3
36 -27 1 -16 3 -39 4 -53 1 -14 3 -51 4 -82 l1 -58 60 0 60 0 1 73 c1 39 2 77
4 82 1 6 3 22 3 38 2 24 6 27 37 27 38 0 35 -10 38 105 l1 30 -142 3 c-78 1
-142 0 -143 -3z"/>
<path d="M2097 1513 c-2 -5 -7 -24 -11 -43 -11 -62 -14 -75 -40 -184 -14 -59
-26 -112 -26 -117 0 -5 16 -9 35 -9 29 0 35 4 36 23 l0 22 15 -22 c15 -21 17
-21 41 -6 23 16 26 16 35 0 7 -13 23 -17 72 -17 l62 0 -40 180 -41 180 -67 0
c-37 0 -69 -3 -71 -7z m59 -275 c-17 -12 -46 -9 -46 4 0 6 6 27 12 46 l13 34
16 -39 c11 -27 13 -40 5 -45z"/>
</g>
</svg>
