<svg width="32" height="32" viewBox="0 0 32 32" fill="none" xmlns="http://www.w3.org/2000/svg">
<path d="M16.0003 1.6665C8.09633 1.6665 1.66699 8.09717 1.66699 15.9998C1.66699 23.9025 8.09633 30.3332 16.0003 30.3332C23.9043 30.3332 30.3337 23.9025 30.3337 15.9998C30.3337 8.09717 23.9043 1.6665 16.0003 1.6665ZM16.0003 28.3332C9.19899 28.3332 3.66699 22.8012 3.66699 15.9998C3.66699 9.1985 9.19899 3.6665 16.0003 3.6665C22.8017 3.6665 28.3337 9.1985 28.3337 15.9998C28.3337 22.8012 22.8017 28.3332 16.0003 28.3332ZM21.667 15.9998C21.667 16.5518 21.219 16.9998 20.667 16.9998H17.0003V20.6665C17.0003 21.2185 16.5523 21.6665 16.0003 21.6665C15.4483 21.6665 15.0003 21.2185 15.0003 20.6665V16.9998H11.3337C10.7817 16.9998 10.3337 16.5518 10.3337 15.9998C10.3337 15.4478 10.7817 14.9998 11.3337 14.9998H15.0003V11.3332C15.0003 10.7812 15.4483 10.3332 16.0003 10.3332C16.5523 10.3332 17.0003 10.7812 17.0003 11.3332V14.9998H20.667C21.219 14.9998 21.667 15.4478 21.667 15.9998Z" fill="white"/>
</svg>
