<svg width="26" height="26" viewBox="0 0 26 26" fill="none" xmlns="http://www.w3.org/2000/svg">
<path fill-rule="evenodd" clip-rule="evenodd" d="M4.37332 1.70674L1.70666 4.3734C1.51199 4.56807 1.25595 4.6667 0.99995 4.6667C0.74395 4.6667 0.487911 4.5694 0.293244 4.3734C-0.0974225 3.98274 -0.0974225 3.34936 0.293244 2.95869L2.95991 0.292023C3.35058 -0.0986432 3.98396 -0.0986432 4.37462 0.292023C4.76529 0.68269 4.76399 1.31607 4.37332 1.70674ZM25.6998 2.95202L23.0332 0.338736C22.6385 -0.047931 22.0065 -0.0412825 21.6171 0.353384C21.2318 0.748051 21.2388 1.38143 21.6321 1.7681L24.2988 4.38138C24.4934 4.57205 24.7466 4.6667 24.9986 4.6667C25.2573 4.6667 25.5172 4.56673 25.7132 4.36673C26.0998 3.97206 26.0932 3.33868 25.6998 2.95202ZM19.1373 21.7162L21.7093 24.2946C22.0986 24.6853 22.0987 25.3187 21.7067 25.7093C21.512 25.904 21.2559 26.0013 21.0013 26.0013C20.7453 26.0013 20.4879 25.9027 20.2932 25.7067L17.3359 22.7412C16.0106 23.3319 14.5466 23.6667 13.0026 23.6667C11.4586 23.6667 9.99455 23.3319 8.66922 22.7412L5.71056 25.7067C5.51589 25.9014 5.25855 26 5.00255 26C4.74789 26 4.49182 25.9027 4.29715 25.708C3.90515 25.3187 3.90521 24.684 4.29455 24.2933L6.86649 21.7162C4.12915 19.7855 2.33719 16.604 2.33719 13C2.33719 7.10936 7.11319 2.33336 13.0039 2.33336C18.8945 2.33336 23.6705 7.10936 23.6705 13C23.6665 16.604 21.8733 19.7855 19.1373 21.7162ZM16.3733 15.0134L13.9999 12.64V7.72139C13.9999 7.16939 13.5519 6.72139 12.9999 6.72139C12.4479 6.72139 11.9999 7.16939 11.9999 7.72139V13.0547C11.9999 13.3201 12.1052 13.5748 12.2932 13.7614L14.9599 16.4281C15.1546 16.6228 15.4106 16.7214 15.6666 16.7214C15.9226 16.7214 16.1787 16.6241 16.3733 16.4281C16.764 16.0361 16.764 15.404 16.3733 15.0134Z" fill="#273672"/>
</svg>
