<svg width="20" height="16" viewBox="0 0 20 16" fill="none" xmlns="http://www.w3.org/2000/svg">
<path d="M19.9993 8.00028C19.9993 8.55228 19.5523 9.00028 18.9993 9.00028H3.4134L8.70637 14.2933C9.09737 14.6842 9.09737 15.3163 8.70637 15.7073C8.51137 15.9023 8.25533 16.0003 7.99933 16.0003C7.74333 16.0003 7.4873 15.9023 7.2923 15.7073L0.293279 8.70829C0.200279 8.61529 0.127238 8.50536 0.0762383 8.38236C-0.0247617 8.13836 -0.0247617 7.8622 0.0762383 7.6182C0.127238 7.4952 0.200279 7.38527 0.293279 7.29227L7.2923 0.29325C7.6833 -0.09775 8.31537 -0.09775 8.70637 0.29325C9.09737 0.68425 9.09737 1.31631 8.70637 1.70731L3.4134 7.00028H18.9993C19.5523 7.00028 19.9993 7.44828 19.9993 8.00028Z" fill="#384252"/>
</svg>
