<?xml version="1.0" standalone="no"?>
<!DOCTYPE svg PUBLIC "-//W3C//DTD SVG 20010904//EN"
 "http://www.w3.org/TR/2001/REC-SVG-20010904/DTD/svg10.dtd">
<svg version="1.0" xmlns="http://www.w3.org/2000/svg"
 width="512.000000pt" height="512.000000pt" viewBox="0 0 512.000000 512.000000"
 preserveAspectRatio="xMidYMid meet">

<g transform="translate(0.000000,512.000000) scale(0.100000,-0.100000)"
fill="#FFF" stroke="none">
<path d="M2993 4925 c-109 -30 -195 -92 -237 -172 -8 -16 -26 -34 -40 -41 -34
-15 -71 -74 -92 -147 -14 -49 -16 -84 -11 -189 6 -127 6 -129 -18 -158 -21
-25 -25 -40 -25 -91 0 -60 29 -198 50 -236 5 -11 21 -28 35 -39 14 -11 25 -29
25 -40 0 -48 23 -124 51 -164 16 -24 29 -55 29 -69 0 -23 -3 -25 -30 -21 -22
3 -39 -3 -67 -26 -81 -63 -186 -102 -489 -180 -161 -42 -197 -57 -230 -94 -30
-33 -35 -53 -18 -77 21 -29 54 -26 86 7 22 24 54 36 215 77 202 51 329 93 407
132 l49 25 -7 -114 c-8 -139 5 -247 40 -335 28 -69 106 -411 98 -425 -3 -5
-48 -8 -100 -8 -81 0 -97 -3 -114 -20 -25 -25 -25 -42 -2 -63 15 -14 40 -17
123 -17 116 0 142 9 175 58 20 30 23 31 29 13 3 -11 20 -32 36 -46 29 -24 37
-25 149 -25 119 0 119 0 155 31 19 17 35 38 35 48 0 9 8 3 20 -16 35 -59 117
-36 94 26 -9 21 -2 66 31 216 23 105 52 212 63 238 33 74 45 175 38 315 -3 68
-3 122 1 120 121 -62 281 -114 540 -178 112 -27 132 -45 161 -137 20 -64 52
-386 52 -516 l0 -47 -74 0 c-58 0 -79 -4 -97 -19 -20 -16 -22 -23 -14 -47 10
-29 11 -29 102 -32 163 -5 189 26 179 207 -27 448 -57 575 -151 640 -18 12
-121 44 -240 75 -295 77 -344 95 -438 163 -36 27 -55 34 -77 31 -29 -4 -30 -3
-30 33 0 21 11 56 25 80 13 24 27 68 31 98 6 45 13 60 44 90 48 46 71 116 77
236 5 87 4 92 -21 122 -25 29 -26 36 -26 149 -1 266 -74 411 -256 506 -125 66
-232 82 -341 53z m282 -134 c98 -48 153 -104 187 -190 20 -50 23 -75 24 -236
2 -157 4 -181 19 -190 49 -29 48 -27 36 -104 -16 -103 -33 -139 -76 -156 -19
-9 -35 -16 -36 -18 0 -1 -4 -38 -8 -83 -6 -62 -14 -89 -34 -119 -24 -36 -27
-49 -27 -131 l0 -92 -77 -57 c-43 -32 -99 -76 -125 -97 l-47 -39 -53 43 c-29
24 -86 68 -126 98 l-72 55 0 82 c0 72 -3 85 -25 111 -37 44 -55 95 -55 155 0
58 -12 81 -50 100 -30 15 -58 103 -59 182 -1 46 2 51 30 68 25 14 30 22 25 40
-4 12 -9 83 -13 158 -5 112 -3 144 10 184 22 62 43 86 72 79 30 -7 55 20 55
60 0 45 58 98 135 126 95 33 183 24 290 -29z m-367 -1476 c34 -26 62 -50 62
-53 0 -2 -11 -13 -25 -24 -33 -26 -32 -58 4 -135 l30 -62 -30 -108 c-24 -90
-29 -127 -29 -223 0 -62 -4 -110 -8 -105 -5 6 -24 82 -42 170 -18 88 -45 192
-61 232 -35 85 -45 179 -34 317 l7 98 32 -29 c17 -17 59 -51 94 -78z m539
-110 c-3 -119 -6 -136 -34 -200 -17 -40 -45 -140 -64 -234 -37 -178 -46 -182
-48 -21 -1 61 -10 115 -31 191 l-30 107 25 61 c30 73 31 102 5 126 -11 10 -20
21 -20 25 0 4 41 38 90 76 50 37 90 73 91 78 1 6 5 -9 11 -34 5 -25 7 -103 5
-175z m-283 -83 c-13 -30 -24 -61 -24 -68 0 -7 13 -60 30 -116 24 -84 31 -131
36 -251 l7 -148 -99 3 -99 3 3 140 c3 118 8 158 34 253 l31 114 -28 59 c-16
32 -26 62 -22 65 3 4 21 16 39 29 l32 22 42 -25 42 -26 -24 -54z"/>
<path d="M1136 4625 c-79 -28 -127 -62 -174 -126 -17 -24 -37 -48 -43 -54
-112 -99 -125 -136 -122 -342 1 -84 -1 -153 -5 -153 -4 0 -15 -13 -25 -29 -23
-39 -22 -104 4 -213 17 -72 28 -98 56 -129 27 -30 36 -50 43 -97 8 -57 39
-134 60 -147 5 -3 10 -19 10 -35 0 -25 -4 -29 -28 -28 -17 1 -52 -16 -93 -44
-75 -51 -203 -96 -448 -158 -179 -45 -192 -50 -234 -89 -71 -65 -93 -151 -117
-468 -20 -257 -21 -265 -3 -296 39 -67 39 -67 531 -67 488 0 495 1 531 61 l19
31 16 -29 c26 -51 72 -65 196 -61 105 3 110 4 139 32 17 17 31 36 31 44 0 8
17 -5 39 -29 l39 -44 448 -3 c247 -2 464 0 483 3 20 4 47 20 63 37 34 37 35
68 12 363 -16 212 -31 289 -70 366 -39 77 -68 93 -280 148 -305 81 -402 117
-474 177 -22 19 -43 28 -66 27 -31 -1 -34 1 -34 28 0 16 11 51 25 78 14 26 28
72 32 102 5 45 11 59 39 82 83 70 122 333 55 379 -16 12 -19 32 -23 173 -7
217 -35 294 -145 397 -133 124 -329 169 -487 113z m271 -97 c127 -47 216 -136
247 -248 20 -75 29 -200 18 -287 -9 -80 -3 -99 35 -114 25 -9 26 -11 19 -75
-10 -100 -35 -156 -77 -176 -35 -16 -36 -18 -46 -101 -7 -58 -17 -95 -32 -115
-18 -25 -21 -44 -21 -119 0 -57 -5 -95 -12 -104 -7 -9 -62 -54 -123 -100 -60
-46 -111 -87 -113 -91 -2 -3 -61 39 -133 94 l-129 100 0 83 c0 73 -3 87 -24
112 -36 44 -45 66 -51 129 -10 96 -13 104 -45 116 -24 8 -33 20 -45 61 -9 29
-18 80 -22 113 -6 60 -5 62 23 75 33 16 32 7 20 183 -13 191 15 286 84 286 34
0 62 33 54 65 -11 45 102 120 206 138 39 7 110 -4 167 -25z m-545 -1580 c4
-177 5 -185 34 -258 33 -79 109 -413 99 -430 -8 -13 -882 -14 -890 0 -9 14 25
447 41 518 19 85 47 137 81 150 15 6 100 29 188 52 189 48 360 104 401 130 16
10 32 19 36 19 3 1 8 -81 10 -181z m266 2 c-35 -36 -35 -48 3 -131 l31 -67
-28 -93 c-21 -72 -29 -125 -34 -224 -4 -71 -7 -127 -8 -122 -1 4 -18 83 -37
175 -20 92 -47 193 -62 226 -33 76 -44 165 -36 302 l6 111 97 -74 97 -75 -29
-28z m500 8 c-3 -164 -4 -176 -30 -233 -16 -34 -45 -139 -66 -240 l-39 -180
-8 130 c-5 93 -15 158 -35 229 l-28 100 24 54 c29 67 31 109 3 138 l-20 22 88
67 c48 38 90 72 91 77 2 4 8 8 14 8 6 0 8 -62 6 -172z m145 151 c67 -35 196
-76 400 -130 128 -33 198 -56 213 -70 43 -41 63 -137 83 -399 11 -135 17 -248
15 -252 -3 -5 -205 -8 -450 -8 -438 0 -444 0 -444 20 0 45 72 359 95 410 37
86 48 165 43 314 -2 75 -2 136 0 136 1 0 22 -10 45 -21z m-443 -194 l40 -25
-16 -38 c-37 -85 -37 -84 -3 -193 29 -96 31 -116 33 -254 l1 -150 -95 0 -95 0
4 140 c3 116 8 156 32 242 16 57 29 112 29 123 0 12 -11 43 -25 70 -14 27 -25
53 -25 57 0 6 66 51 78 53 1 0 20 -11 42 -25z"/>
<path d="M3815 2776 c-47 -21 -86 -70 -100 -124 -11 -42 -8 -136 20 -633 18
-321 31 -585 30 -587 -1 -1 -29 53 -61 120 -86 178 -148 238 -252 240 -69 2
-115 -18 -160 -66 -47 -51 -66 -120 -54 -188 13 -65 240 -714 272 -778 16 -30
91 -158 167 -285 114 -189 146 -235 181 -260 l44 -30 480 -3 481 -3 54 26 c39
20 60 38 78 70 32 54 111 287 119 351 3 27 0 239 -7 471 l-14 421 -27 46 c-15
26 -44 57 -64 71 -42 28 -132 50 -167 41 -18 -5 -35 4 -74 37 -59 50 -105 67
-186 67 -50 0 -61 4 -97 35 -73 62 -167 78 -290 49 -23 -5 -28 -3 -28 12 0 11
-20 188 -44 396 -46 388 -55 427 -102 469 -54 48 -138 62 -199 35z m134 -113
c12 -14 24 -36 26 -47 3 -12 25 -196 50 -411 31 -262 50 -397 60 -412 21 -31
58 -38 125 -25 117 25 176 10 229 -56 l32 -41 82 5 c79 6 84 5 127 -25 25 -17
57 -40 71 -52 21 -16 41 -21 96 -22 77 -2 114 -19 136 -65 11 -20 17 -130 27
-452 l12 -425 -42 -130 c-23 -72 -49 -145 -57 -163 -29 -63 -25 -62 -532 -62
l-461 0 -29 28 c-25 24 -256 403 -309 508 -28 55 -251 697 -258 744 -13 79 55
151 127 135 63 -14 88 -50 215 -312 120 -247 124 -253 153 -253 20 0 34 7 41
20 7 14 -1 221 -30 739 -22 395 -37 727 -34 737 24 67 104 87 143 37z"/>
</g>
</svg>
