<svg width="32" height="32" viewBox="0 0 32 32" fill="none" xmlns="http://www.w3.org/2000/svg">
<path d="M26.6667 16.6665V22.9998H5.33333V16.6665C6.09333 16.6665 7.37333 18.2932 8 19.4665C8.18667 19.8132 8.56 20.0265 8.96 19.9998C9.34667 19.9732 9.69333 19.7065 9.82666 19.3332C9.82666 19.3065 10.8267 16.6665 12.4533 16.6665C14.08 16.6665 15.0533 19.3065 15.0533 19.3332C15.2 19.7332 15.5733 19.9998 16 19.9998C16.4267 19.9998 16.8 19.7332 16.9467 19.3332C17.1867 18.6398 18.1867 16.6665 19.5467 16.6665C21.1733 16.6665 22.16 19.3065 22.1733 19.3332C22.3067 19.7065 22.6533 19.9732 23.04 19.9998C23.4667 20.0265 23.8133 19.8132 24 19.4665C24.6267 18.2932 25.9067 16.6665 26.6667 16.6665ZM22.6667 9.33317H22.3333V6.6665C22.3333 6.11984 21.88 5.6665 21.3333 5.6665C20.7867 5.6665 20.3333 6.11984 20.3333 6.6665V9.33317H17V6.6665C17 6.11984 16.5467 5.6665 16 5.6665C15.4533 5.6665 15 6.11984 15 6.6665V9.33317H11.6667V6.6665C11.6667 6.11984 11.2133 5.6665 10.6667 5.6665C10.12 5.6665 9.66667 6.11984 9.66667 6.6665V9.33317H9.33333C6.66667 9.33317 5.33333 10.6665 5.33333 13.3332V14.6665C6.73333 14.6665 7.97333 15.9065 8.78666 16.9998C9.52 15.9065 10.72 14.6665 12.4533 14.6665C14.1867 14.6665 15.2667 15.7998 16 16.8532C16.7333 15.7998 17.8933 14.6665 19.5467 14.6665C21.2 14.6665 22.48 15.9065 23.2133 16.9998C24.0267 15.9065 25.2667 14.6665 26.6667 14.6665V13.3332C26.6667 10.6665 25.3333 9.33317 22.6667 9.33317ZM4 24.9998V25.9998C4 27.1065 4.89333 27.9998 6 27.9998H26C27.1067 27.9998 28 27.1065 28 25.9998V24.9998H4Z" fill="#273672"/>
</svg>
