<svg width="25" height="25" viewBox="0 0 25 25" fill="none" xmlns="http://www.w3.org/2000/svg">
<path fill-rule="evenodd" clip-rule="evenodd" d="M12.5 0C5.59625 0 0 5.59625 0 12.5C0 19.4037 5.59625 25 12.5 25C19.4037 25 25 19.4037 25 12.5C25 5.59625 19.4037 0 12.5 0ZM16.9125 16.9125C16.73 17.095 16.49 17.1875 16.25 17.1875C16.01 17.1875 15.77 17.0963 15.5875 16.9125L11.8375 13.1625C11.6612 12.9863 11.5625 12.7475 11.5625 12.5V6.25C11.5625 5.7325 11.9825 5.3125 12.5 5.3125C13.0175 5.3125 13.4375 5.7325 13.4375 6.25V12.1112L16.9125 15.5862C17.2788 15.9537 17.2788 16.5463 16.9125 16.9125Z" fill="#273672"/>
</svg>
