<svg width="32" height="32" viewBox="0 0 32 32" fill="none" xmlns="http://www.w3.org/2000/svg">
<path d="M24.7068 23.2933C25.0975 23.684 25.0975 24.3174 24.7068 24.708C24.5122 24.9027 24.2562 25.0013 24.0002 25.0013C23.7442 25.0013 23.4882 24.904 23.2935 24.708L16.0002 17.4147L8.70682 24.708C8.51215 24.9027 8.25615 25.0013 8.00015 25.0013C7.74415 25.0013 7.48815 24.904 7.29349 24.708C6.90282 24.3174 6.90282 23.684 7.29349 23.2933L14.5868 16L7.29349 8.70674C6.90282 8.31607 6.90282 7.68269 7.29349 7.29202C7.68415 6.90136 8.31749 6.90136 8.70816 7.29202L16.0015 14.5854L23.2948 7.29202C23.6855 6.90136 24.3188 6.90136 24.7095 7.29202C25.1002 7.68269 25.1002 8.31607 24.7095 8.70674L17.4161 16L24.7068 23.2933Z" fill="white"/>
</svg>
