<svg width="28" height="28" viewBox="0 0 28 28" fill="none" xmlns="http://www.w3.org/2000/svg">
<path d="M13.9998 0.666504C6.63984 0.666504 0.666504 6.63984 0.666504 13.9998C0.666504 21.3598 6.63984 27.3332 13.9998 27.3332C21.3598 27.3332 27.3332 21.3598 27.3332 13.9998C27.3332 6.63984 21.3598 0.666504 13.9998 0.666504ZM18.7065 17.2931C19.0932 17.6798 19.0932 18.3199 18.7065 18.7065C18.5065 18.9065 18.2532 18.9998 17.9998 18.9998C17.7465 18.9998 17.4932 18.9065 17.2932 18.7065L13.9998 15.4132L10.7065 18.7065C10.5065 18.9065 10.2532 18.9998 9.99984 18.9998C9.7465 18.9998 9.49317 18.9065 9.29317 18.7065C8.9065 18.3199 8.9065 17.6798 9.29317 17.2931L12.5865 13.9998L9.29317 10.7065C8.9065 10.3199 8.9065 9.6798 9.29317 9.29313C9.67984 8.90646 10.3198 8.90646 10.7065 9.29313L13.9998 12.5865L17.2932 9.29313C17.6798 8.90646 18.3198 8.90646 18.7065 9.29313C19.0932 9.6798 19.0932 10.3199 18.7065 10.7065L15.4132 13.9998L18.7065 17.2931Z" fill="#C8CED9"/>
</svg>
