<svg width="24" height="26" viewBox="0 0 24 26" fill="none" xmlns="http://www.w3.org/2000/svg">
<path d="M13 4.66699V1.66699L19 7.66699H16C13.8933 7.66699 13 6.77366 13 4.66699ZM19.8799 13.6136L11.9199 21.627C11.5466 22.0003 11.3333 22.507 11.3333 23.0403V24.267C11.3333 24.4937 11.1599 24.667 10.9333 24.667H4C1.33333 24.667 0 23.3337 0 20.667V4.66699C0 2.00033 1.33333 0.666992 4 0.666992H11V4.66699C11 7.89366 12.7733 9.66699 16 9.66699H20V13.3337C20 13.4403 19.9599 13.547 19.8799 13.6136ZM11.6667 18.0003C11.6667 17.4483 11.2187 17.0003 10.6667 17.0003H5.33333C4.78133 17.0003 4.33333 17.4483 4.33333 18.0003C4.33333 18.5523 4.78133 19.0003 5.33333 19.0003H10.6667C11.2187 19.0003 11.6667 18.5523 11.6667 18.0003ZM15.6667 12.667C15.6667 12.115 15.2187 11.667 14.6667 11.667H5.33333C4.78133 11.667 4.33333 12.115 4.33333 12.667C4.33333 13.219 4.78133 13.667 5.33333 13.667H14.6667C15.2187 13.667 15.6667 13.219 15.6667 12.667ZM13.3333 23.0403V26.0003H16.2933L21.6266 20.6936L18.64 17.707L13.3333 23.0403ZM23.6533 17.0003L22.3333 15.6803C21.8667 15.2137 21.12 15.2137 20.6533 15.6803L19.5732 16.7736L22.5599 19.7603L23.6533 18.6803C24.12 18.2137 24.12 17.467 23.6533 17.0003Z" fill="#273672"/>
</svg>
