<svg width="32" height="32" viewBox="0 0 32 32" fill="none" xmlns="http://www.w3.org/2000/svg">
<path d="M29.3333 23.3335H20" stroke="#273672" stroke-width="2" stroke-miterlimit="10" stroke-linecap="round" stroke-linejoin="round"/>
<path d="M6.6665 23.3335H2.6665" stroke="#273672" stroke-width="2" stroke-miterlimit="10" stroke-linecap="round" stroke-linejoin="round"/>
<path d="M29.3335 8.6665H25.3335" stroke="#273672" stroke-width="2" stroke-miterlimit="10" stroke-linecap="round" stroke-linejoin="round"/>
<path d="M11.9998 8.6665H2.6665" stroke="#273672" stroke-width="2" stroke-miterlimit="10" stroke-linecap="round" stroke-linejoin="round"/>
<path d="M9.33317 19.3335H17.3332C18.7998 19.3335 19.9998 20.0002 19.9998 22.0002V24.6668C19.9998 26.6668 18.7998 27.3335 17.3332 27.3335H9.33317C7.8665 27.3335 6.6665 26.6668 6.6665 24.6668V22.0002C6.6665 20.0002 7.8665 19.3335 9.33317 19.3335Z" stroke="#273672" stroke-width="2" stroke-miterlimit="10" stroke-linecap="round" stroke-linejoin="round"/>
<path d="M14.6667 4.6665H22.6667C24.1333 4.6665 25.3333 5.33317 25.3333 7.33317V9.99984C25.3333 11.9998 24.1333 12.6665 22.6667 12.6665H14.6667C13.2 12.6665 12 11.9998 12 9.99984V7.33317C12 5.33317 13.2 4.6665 14.6667 4.6665Z" stroke="#273672" stroke-width="2" stroke-miterlimit="10" stroke-linecap="round" stroke-linejoin="round"/>
</svg>
