<svg width="24" height="24" viewBox="0 0 24 24" fill="none" xmlns="http://www.w3.org/2000/svg">
<path d="M5.22034 10.4746V22C5.22034 21.0639 5.97919 20.3051 6.91525 20.3051C7.85131 20.3051 8.61017 21.0639 8.61017 22C8.61017 21.0639 9.36902 20.3051 10.3051 20.3051C11.2411 20.3051 12 21.0639 12 22C12 21.0639 12.7589 20.3051 13.6949 20.3051C14.631 20.3051 15.3898 21.0639 15.3898 22C15.3898 21.0639 16.1487 20.3051 17.0847 20.3051C18.0208 20.3051 18.7797 21.0639 18.7797 22V13.8644M3.52542 2H6.91525M5.22034 7.08475V2M10.3051 7.08475V3.69492C10.3051 2.75886 11.0639 2 12 2C12.9361 2 13.6949 2.75886 13.6949 3.69492V7.08475M17.0847 7.08475L20.4746 2M20.4746 7.08475L17.0847 2M10.3051 5.38983H13.6949M3.52542 10.4746H20.4746" stroke="#273672" stroke-width="1.5" stroke-miterlimit="10" stroke-linecap="round" stroke-linejoin="round"/>
<path d="M15.3898 13.6949H12M15.3898 17.0847H12" stroke="#273672" stroke-width="1.5" stroke-miterlimit="10" stroke-linecap="round" stroke-linejoin="round"/>
</svg>
