<svg width="28" height="29" viewBox="0 0 28 29" fill="none" xmlns="http://www.w3.org/2000/svg">
<path d="M2.48894 10.2472C2.13903 9.99721 1.96407 9.87224 1.81153 9.85601C1.58342 9.83175 1.3548 9.9494 1.24195 10.1491C1.16649 10.2827 1.1665 10.4953 1.1665 10.9206V18.4837C1.16649 19.4228 1.16648 20.1979 1.21806 20.8293C1.27164 21.4851 1.38664 22.0879 1.67514 22.6541C2.12255 23.5322 2.83646 24.2461 3.71455 24.6935C4.28077 24.982 4.88359 25.097 5.53937 25.1506C6.17076 25.2022 6.94584 25.2022 7.88496 25.2021H20.1147C21.0538 25.2022 21.8289 25.2022 22.4603 25.1506C23.1161 25.097 23.7189 24.982 24.2851 24.6935C25.1632 24.2461 25.8771 23.5322 26.3245 22.6541C26.613 22.0879 26.728 21.4851 26.7816 20.8293C26.8332 20.1979 26.8332 19.4228 26.8332 18.4837V10.9206C26.8332 10.7122 26.8332 10.6079 26.8141 10.5352C26.7278 10.2061 26.37 10.0187 26.0504 10.135C25.9797 10.1607 25.8929 10.2208 25.7194 10.341L16.6869 16.5944C16.0464 17.0392 15.4841 17.4297 14.8453 17.5845C14.2866 17.72 13.7031 17.7157 13.1464 17.572C12.5099 17.4078 11.9534 17.0091 11.3196 16.5549L2.48894 10.2472Z" fill="#273672"/>
<path d="M25.8214 7.43232C26.0368 7.28322 26.1445 7.20867 26.2106 7.08876C26.262 6.99565 26.2914 6.8482 26.2796 6.74251C26.2645 6.6064 26.2066 6.51655 26.0909 6.33683C25.6478 5.6484 25.01 5.08013 24.2851 4.71079C23.7189 4.42228 23.1161 4.30729 22.4603 4.25371C21.8289 4.20212 21.0538 4.20213 20.1147 4.20215H7.88499C6.94587 4.20213 6.17076 4.20212 5.53937 4.25371C4.88359 4.30729 4.28077 4.42228 3.71455 4.71079C3.06235 5.0431 2.4986 5.52352 2.06993 6.10772C1.93506 6.29152 1.86763 6.38342 1.84542 6.52289C1.82804 6.63196 1.8523 6.78348 1.90286 6.88168C1.96751 7.00724 2.07964 7.08734 2.30392 7.24753L12.5415 14.5601C13.39 15.1661 13.57 15.2716 13.7293 15.3127C13.9149 15.3606 14.1094 15.362 14.2956 15.3169C14.4556 15.2781 14.6371 15.1753 15.4944 14.5818L25.8214 7.43232Z" fill="#273672"/>
</svg>
