<svg width="28" height="28" viewBox="0 0 28 28" fill="none" xmlns="http://www.w3.org/2000/svg">
<path d="M20.5624 16.5365L23.646 18.3751C24.283 18.7554 24.6119 19.4951 24.466 20.2231C23.8699 23.2086 20.8717 25.122 17.9352 24.3158C11.0063 22.4141 5.59402 17.0183 3.68536 10.0743C2.87802 7.13662 4.78914 4.13593 7.77581 3.5386L7.79546 3.53511C8.52463 3.38927 9.26798 3.71944 9.64715 4.35994L11.4706 7.43878C12.1193 8.53312 11.7971 9.94476 10.7366 10.6494L8.79892 11.9386C10.1663 15.2134 12.7795 17.8373 16.045 19.2023L17.3458 17.2598C18.0563 16.2016 19.4681 15.8843 20.5624 16.5365ZM20.7083 11.6668C20.7083 9.25411 18.7448 7.29177 16.3333 7.29177C15.8503 7.29177 15.4583 7.68377 15.4583 8.16677C15.4583 8.64977 15.8503 9.04177 16.3333 9.04177C17.7799 9.04177 18.9583 10.2189 18.9583 11.6668C18.9583 12.1498 19.3503 12.5418 19.8333 12.5418C20.3163 12.5418 20.7083 12.1498 20.7083 11.6668ZM23.3333 12.5418C22.8503 12.5418 22.4583 12.1498 22.4583 11.6668C22.4583 8.28927 19.7108 5.54177 16.3333 5.54177C15.8503 5.54177 15.4583 5.14977 15.4583 4.66677C15.4583 4.18377 15.8503 3.79177 16.3333 3.79177C20.6756 3.79177 24.2083 7.32444 24.2083 11.6668C24.2083 12.1498 23.8163 12.5418 23.3333 12.5418Z" fill="#273672"/>
</svg>
