<svg width="33" height="32" viewBox="0 0 33 32" fill="none" xmlns="http://www.w3.org/2000/svg">
<path d="M24.1598 4H9.17318C6.17318 4 4.6665 5.49333 4.6665 8.49333V23.4933C4.6665 26.4933 6.17318 28 9.17318 28H24.1598C27.1732 28 28.6665 26.4933 28.6665 23.4933V8.49333C28.6665 5.49333 27.1732 4 24.1598 4ZM21.3332 17H17.6665V20.6667C17.6665 21.2133 17.2132 21.6667 16.6665 21.6667C16.1198 21.6667 15.6665 21.2133 15.6665 20.6667V17H11.9998C11.4532 17 10.9998 16.5467 10.9998 16C10.9998 15.4533 11.4532 15 11.9998 15H15.6665V11.3333C15.6665 10.7867 16.1198 10.3333 16.6665 10.3333C17.2132 10.3333 17.6665 10.7867 17.6665 11.3333V15H21.3332C21.8798 15 22.3332 15.4533 22.3332 16C22.3332 16.5467 21.8798 17 21.3332 17Z" fill="#3C54B0"/>
</svg>
