<svg width="20" height="20" viewBox="0 0 26 26" fill="none" xmlns="http://www.w3.org/2000/svg">
<path d="M25.7067 24.2933L20.5854 19.172C22.2974 17.1413 23.3333 14.524 23.3333 11.6667C23.3333 5.23333 18.1 0 11.6667 0C5.23333 0 0 5.23333 0 11.6667C0 18.1 5.23333 23.3333 11.6667 23.3333C14.524 23.3333 17.1414 22.2973 19.172 20.5853L24.2933 25.7067C24.488 25.9013 24.744 26 25 26C25.256 26 25.512 25.9027 25.7067 25.7067C26.0974 25.3173 26.0974 24.684 25.7067 24.2933ZM2 11.6667C2 6.336 6.336 2 11.6667 2C16.9973 2 21.3333 6.336 21.3333 11.6667C21.3333 16.9973 16.9973 21.3333 11.6667 21.3333C6.336 21.3333 2 16.9973 2 11.6667Z" fill="#384252"/>
</svg>
