<svg width="26" height="23" viewBox="0 0 26 23" fill="none" xmlns="http://www.w3.org/2000/svg">
<path d="M25.7063 15.3736L19.0397 22.0402C18.845 22.2349 18.589 22.3335 18.333 22.3335C18.077 22.3335 17.8209 22.2362 17.6263 22.0402C17.2356 21.6496 17.2356 21.0162 17.6263 20.6255L22.5862 15.6656H4.99963C4.44763 15.6656 3.99963 15.2176 3.99963 14.6656C3.99963 14.1136 4.44763 13.6656 4.99963 13.6656H24.9996C25.405 13.6656 25.7691 13.9094 25.9238 14.2827C26.0785 14.6574 25.993 15.0882 25.7063 15.3736ZM21.9996 8.00019C21.9996 7.44819 21.5516 7.00019 20.9996 7.00019H3.41435L8.37431 2.04023C8.76498 1.64957 8.76498 1.01619 8.37431 0.62552C7.98364 0.234853 7.35026 0.234853 6.95959 0.62552L0.292928 7.29219C0.00626165 7.57752 -0.0778529 8.00805 0.0754804 8.38138C0.230147 8.75471 0.595634 8.99889 0.999634 8.99889H20.9996C21.5516 9.00023 21.9996 8.55219 21.9996 8.00019Z" fill="#273672"/>
</svg>
