<?xml version="1.0" encoding="UTF-8" standalone="no"?>
<svg
   xmlns:dc="http://purl.org/dc/elements/1.1/"
   xmlns:cc="http://creativecommons.org/ns#"
   xmlns:rdf="http://www.w3.org/1999/02/22-rdf-syntax-ns#"
   xmlns:svg="http://www.w3.org/2000/svg"
   xmlns="http://www.w3.org/2000/svg"
   viewBox="0 0 64 64"
   height="64"
   width="64"
   xml:space="preserve"
   id="svg2"
   version="1.1"><metadata
     id="metadata8"><rdf:RDF><cc:Work
         rdf:about=""><dc:format>image/svg+xml</dc:format><dc:type
           rdf:resource="http://purl.org/dc/dcmitype/StillImage" /></cc:Work></rdf:RDF></metadata><defs
     id="defs6" /><g
     transform="matrix(1.3333333,0,0,1.3333333,0,1.6e-6)"
     id="g10"><g
       id="g12"><path
         id="path14"
         style="fill:#000000;fill-opacity:1;fill-rule:nonzero;stroke:none"
         d="M 28.922,16.078 26.27,13.43 c -0.438,-0.442 -1.153,-0.442 -1.59,0 -0.215,0.211 -0.328,0.492 -0.332,0.793 0,0.3 0.117,0.582 0.332,0.797 l 0.73,0.73 h -3.332 c -0.207,0 -0.375,0.168 -0.375,0.375 0,0.207 0.168,0.375 0.375,0.375 h 4.238 c 0.149,0 0.289,-0.09 0.344,-0.23 0.059,-0.141 0.028,-0.305 -0.078,-0.411 l -1.371,-1.371 c -0.074,-0.07 -0.109,-0.164 -0.109,-0.265 0,-0.098 0.039,-0.192 0.109,-0.266 0.144,-0.145 0.383,-0.145 0.527,0 l 2.653,2.652 c 0.148,0.145 0.148,0.383 0,0.532 l -2.653,2.648 c -0.144,0.149 -0.383,0.149 -0.527,0 -0.074,-0.07 -0.109,-0.164 -0.109,-0.262 0,-0.101 0.039,-0.195 0.109,-0.265 l 1.371,-1.371 c 0.106,-0.11 0.137,-0.27 0.078,-0.411 -0.058,-0.14 -0.195,-0.23 -0.344,-0.23 h -4.238 c -0.207,0 -0.375,0.168 -0.375,0.375 0,0.207 0.168,0.375 0.375,0.375 h 3.332 l -0.73,0.73 c -0.215,0.215 -0.332,0.497 -0.332,0.797 0,0.301 0.117,0.582 0.332,0.797 0.218,0.219 0.508,0.328 0.793,0.328 0.289,0 0.578,-0.109 0.797,-0.328 l 2.652,-2.652 c 0.437,-0.442 0.437,-1.152 0,-1.594 z m -8.297,-0.316 c -0.207,0 -0.375,0.168 -0.375,0.375 v 1.5 c 0,0.207 0.168,0.375 0.375,0.375 0.207,0 0.375,-0.168 0.375,-0.375 v -1.5 c 0,-0.207 -0.168,-0.375 -0.375,-0.375 z m -1.5,2.25 c 0.207,0 0.375,-0.168 0.375,-0.375 v -1.5 c 0,-0.207 -0.168,-0.375 -0.375,-0.375 -0.207,0 -0.375,0.168 -0.375,0.375 v 1.5 c 0,0.207 0.168,0.375 0.375,0.375 z m -7.875,2.613 c 2.688,0 4.875,-2.187 4.875,-4.875 0,-2.688 -2.187,-4.875 -4.875,-4.875 -2.688,0 -4.875,2.187 -4.875,4.875 0,2.688 2.187,4.875 4.875,4.875 z m 0,-8.25 c 1.859,0 3.375,1.516 3.375,3.375 0,1.859 -1.516,3.375 -3.375,3.375 -1.859,0 -3.375,-1.516 -3.375,-3.375 0,-1.859 1.516,-3.375 3.375,-3.375 z m 4.5,9.75 h -9 C 4.684,22.125 3,23.809 3,25.875 v 10.5 c 0,0.414 0.336,0.75 0.75,0.75 h 15 c 0.414,0 0.75,-0.336 0.75,-0.75 v -10.5 c 0,-2.066 -1.684,-3.75 -3.75,-3.75 z m 2.25,13.5 h -1.5 v -8.25 C 16.5,27.168 16.332,27 16.125,27 15.918,27 15.75,27.168 15.75,27.375 v 8.25 h -9 v -8.25 C 6.75,27.168 6.582,27 6.375,27 6.168,27 6,27.168 6,27.375 v 8.25 H 4.5 v -9.75 c 0,-1.242 1.008,-2.25 2.25,-2.25 h 9 c 1.242,0 2.25,1.008 2.25,2.25 z m 18.75,-15 c 2.688,0 4.875,-2.187 4.875,-4.875 0,-2.688 -2.187,-4.875 -4.875,-4.875 -2.688,0 -4.875,2.187 -4.875,4.875 0,2.688 2.187,4.875 4.875,4.875 z m 0,-8.25 c 1.859,0 3.375,1.516 3.375,3.375 0,1.859 -1.516,3.375 -3.375,3.375 -1.859,0 -3.375,-1.516 -3.375,-3.375 0,-1.859 1.516,-3.375 3.375,-3.375 z m 4.5,9.75 h -9 c -2.066,0 -3.75,1.684 -3.75,3.75 v 10.5 c 0,0.414 0.336,0.75 0.75,0.75 h 15 c 0.414,0 0.75,-0.336 0.75,-0.75 v -10.5 c 0,-2.066 -1.684,-3.75 -3.75,-3.75 z m 2.25,13.5 H 42 v -8.25 C 42,27.168 41.832,27 41.625,27 41.418,27 41.25,27.168 41.25,27.375 v 8.25 h -9 v -8.25 C 32.25,27.168 32.082,27 31.875,27 31.668,27 31.5,27.168 31.5,27.375 v 8.25 H 30 v -9.75 c 0,-1.242 1.008,-2.25 2.25,-2.25 h 9 c 1.242,0 2.25,1.008 2.25,2.25 z" /></g></g></svg>