<svg width="24" height="24" viewBox="0 0 24 24" fill="none" xmlns="http://www.w3.org/2000/svg">
<path d="M5.0105 5.58317C5.0105 3.0095 7.1035 0.916504 9.67716 0.916504C12.2508 0.916504 14.3438 3.0095 14.3438 5.58317C14.3438 8.15684 12.2508 10.2498 9.67716 10.2498C7.1035 10.2498 5.0105 8.15684 5.0105 5.58317ZM12.6999 19.0582C12.3733 17.4016 12.7117 15.8032 13.6333 14.6715C13.96 14.2865 14.345 13.9598 14.7883 13.7265C14.8443 13.6926 14.8735 13.6799 14.9166 13.6449C14.9866 13.5865 15.0216 13.4931 15.0216 13.3998C15.0216 13.1478 14.7533 13.0615 14.7533 13.0615C13.9833 12.7582 13.0733 12.5832 12 12.5832H7.33329C2.59663 12.5832 0.916626 16.0482 0.916626 19.0232C0.916626 21.6832 2.32829 23.0832 4.99996 23.0832H14.2866C14.4732 23.0832 14.6366 22.9314 14.6366 22.7331C14.6366 22.6398 14.59 22.5465 14.5317 22.4882C13.6917 21.5782 12.9683 20.4232 12.6999 19.0582ZM21.0673 14.9165C19.5226 14.9095 19.0047 16.4402 19.0047 16.4402C19.0047 16.4402 18.4854 14.9095 16.9419 14.9165C14.8676 14.927 14.0521 16.8298 14.4254 18.7221C15.0344 21.8068 19.0047 23.5825 19.0047 23.5825C19.0047 23.5825 22.9747 21.8056 23.5837 18.7221C23.9571 16.8298 23.1451 14.927 21.0673 14.9165Z" fill="#273672"/>
</svg>
