<svg width="27" height="27" viewBox="0 0 27 27" fill="none" xmlns="http://www.w3.org/2000/svg">
<path d="M5.01221 5.66634C5.01221 2.72501 7.40421 0.333008 10.3455 0.333008C13.2869 0.333008 15.6789 2.72501 15.6789 5.66634C15.6789 8.60767 13.2869 10.9997 10.3455 10.9997C7.40421 10.9997 5.01221 8.60767 5.01221 5.66634ZM17.3468 15.4263C17.3735 15.4263 17.4001 15.4396 17.4401 15.4396C17.6001 15.4396 17.6802 15.333 17.6668 15.1997C17.6668 15.093 17.5602 15.013 17.5068 14.973C16.4002 14.173 14.9202 13.6663 13.0002 13.6663H7.66683C2.2535 13.6663 0.333496 17.6264 0.333496 21.0264C0.333496 24.0664 1.94683 25.6663 5.00016 25.6663H14.3735C14.5869 25.6663 14.7601 25.5196 14.7601 25.2796C14.7601 25.1996 14.6802 25.0397 14.6535 24.9863L13.9601 23.7996C13.6535 23.2796 13.5868 22.6531 13.7601 22.0798C13.8534 21.7864 14.0002 21.5063 14.2135 21.2796C14.2269 21.2663 14.3335 21.149 14.3335 20.9997C14.3335 20.893 14.2802 20.7864 14.2135 20.7197C13.8669 20.3197 13.6668 19.813 13.6668 19.2796C13.6668 18.853 13.8002 18.5063 13.9069 18.293C13.9336 18.2396 13.9468 18.1997 13.9735 18.1597L14.9868 16.493C15.3735 15.7997 16.1069 15.373 16.8936 15.373C17.0536 15.373 17.2002 15.3863 17.3468 15.4263ZM26.1602 22.5464C26.2268 22.5864 26.2534 22.6397 26.2534 22.7064C26.2534 22.7464 26.2536 22.7863 26.2269 22.813L25.2135 24.5197C25.1602 24.613 25.0268 24.6529 24.9334 24.5996C24.6534 24.4396 24.3335 24.3597 24.0135 24.3597C23.6935 24.3597 23.3734 24.4396 23.0934 24.5996C22.5334 24.9196 22.1868 25.5063 22.1868 26.133C22.1868 26.2396 22.0935 26.333 21.9868 26.333H19.9468C19.8268 26.333 19.7336 26.2396 19.7336 26.133V26.0929C19.7336 25.4796 19.3735 24.9196 18.8268 24.5996C18.2668 24.2796 17.5602 24.2796 16.9868 24.5996C16.9601 24.6129 16.9336 24.6263 16.8936 24.6263C16.8269 24.6263 16.7469 24.5864 16.7069 24.5197L15.6935 22.813C15.6402 22.7197 15.6668 22.5997 15.7734 22.5464C16.3201 22.2264 16.6802 21.653 16.6802 21.0397V20.9997C16.6802 20.3597 16.3334 19.773 15.7734 19.453C15.7068 19.413 15.6668 19.3463 15.6668 19.2796C15.6668 19.253 15.6802 19.213 15.6935 19.1864L16.7202 17.4797C16.7735 17.3863 16.8935 17.3464 16.9868 17.3997C17.2668 17.5597 17.5869 17.6396 17.9069 17.6396C18.2269 17.6396 18.5468 17.5597 18.8268 17.3997C19.4002 17.0797 19.7469 16.493 19.7469 15.8664C19.7469 15.7597 19.8268 15.6663 19.9468 15.6663H21.9735C22.0935 15.6663 22.1868 15.7597 22.1868 15.8664C22.1868 16.493 22.5334 17.0797 23.0934 17.3997C23.3734 17.5597 23.6935 17.6396 24.0135 17.6396C24.3335 17.6396 24.6534 17.5597 24.9334 17.3997L25.1068 17.3063L26.3335 19.3597L26.1602 19.453C25.5868 19.773 25.2402 20.3597 25.2402 20.9997C25.2402 21.6397 25.5868 22.2264 26.1602 22.5464ZM22.5602 20.9997C22.5602 20.1597 21.8669 19.4797 21.0269 19.4797H21.0135C20.1735 19.4797 19.4935 20.1597 19.4935 20.9997C19.4935 21.8397 20.1869 22.5197 21.0269 22.5197C21.8669 22.5197 22.5602 21.8397 22.5602 20.9997Z" fill="#273672"/>
</svg>
